<?xml version="1.0" standalone="no"?>
<!DOCTYPE svg PUBLIC "-//W3C//DTD SVG 20010904//EN"
 "http://www.w3.org/TR/2001/REC-SVG-20010904/DTD/svg10.dtd">
<svg version="1.0" xmlns="http://www.w3.org/2000/svg"
 width="792.000000pt" height="870.000000pt" viewBox="0 0 792.000000 870.000000"
 preserveAspectRatio="xMidYMid meet">

<g transform="translate(0.000000,870.000000) scale(0.100000,-0.100000)"
fill="#000000" stroke="none">
<path d="M5730 8689 c0 -5 5 -7 10 -4 6 3 10 8 10 11 0 2 -4 4 -10 4 -5 0 -10
-5 -10 -11z"/>
<path d="M5652 8640 c-30 -16 -62 -36 -71 -44 -10 -9 -22 -16 -28 -16 -6 0
-16 -7 -23 -15 -7 -9 -32 -25 -55 -35 -23 -10 -48 -26 -55 -35 -7 -8 -18 -15
-25 -15 -7 0 -18 -7 -25 -15 -7 -9 -33 -25 -56 -35 -24 -11 -46 -24 -49 -30
-3 -6 -26 -19 -51 -30 -43 -20 -59 -50 -34 -65 6 -3 10 -21 10 -40 0 -19 5
-37 10 -40 6 -3 10 -17 10 -30 0 -13 5 -27 10 -30 6 -3 10 -21 10 -39 0 -17 5
-37 12 -44 10 -10 7 -17 -10 -34 l-22 -22 -24 23 c-14 13 -23 27 -21 31 3 4
-2 13 -10 20 -8 7 -13 16 -10 20 3 4 -2 13 -10 20 -8 7 -12 16 -9 21 3 5 -2
12 -11 15 -9 4 -14 12 -11 20 3 7 -2 18 -10 24 -8 7 -14 19 -14 26 0 20 -14
17 -35 -6 -10 -11 -23 -20 -30 -20 -7 0 -20 -9 -30 -20 -10 -11 -26 -20 -37
-20 -10 0 -18 -4 -18 -10 0 -5 -8 -10 -18 -10 -10 0 -24 -9 -32 -20 -8 -11
-21 -20 -30 -20 -9 0 -22 -9 -30 -20 -8 -11 -21 -20 -30 -20 -9 0 -22 -9 -30
-20 -8 -11 -22 -20 -32 -20 -10 0 -18 -4 -18 -10 0 -5 -8 -10 -18 -10 -10 0
-24 -9 -32 -20 -8 -11 -21 -20 -30 -20 -9 0 -22 -9 -30 -20 -8 -11 -22 -20
-31 -20 -9 0 -22 -7 -29 -15 -7 -9 -32 -24 -54 -35 -49 -22 -88 -61 -68 -67 6
-3 12 -13 12 -24 0 -10 5 -19 10 -19 6 0 10 -9 10 -20 0 -11 5 -20 10 -20 6 0
10 -9 10 -20 0 -11 9 -25 20 -32 11 -7 20 -21 20 -30 0 -10 5 -18 10 -18 6 0
10 -9 10 -20 0 -11 -6 -20 -13 -20 -20 0 -73 -28 -87 -45 -7 -8 -18 -15 -25
-15 -6 0 -20 -9 -30 -20 -10 -11 -24 -20 -30 -20 -20 0 -43 -32 -27 -37 6 -3
12 -13 12 -24 0 -10 5 -19 10 -19 6 0 10 -9 10 -20 0 -11 5 -20 10 -20 6 0 10
-9 10 -20 0 -11 5 -20 10 -20 6 0 10 -9 10 -20 0 -11 9 -25 20 -32 11 -7 20
-21 20 -30 0 -10 5 -18 10 -18 6 0 10 -9 10 -20 0 -11 5 -20 10 -20 6 0 10 -9
10 -20 0 -11 5 -20 10 -20 6 0 10 -9 10 -20 0 -11 9 -25 20 -32 11 -7 20 -21
20 -30 0 -10 5 -18 10 -18 6 0 10 -9 10 -20 0 -11 5 -20 10 -20 6 0 10 -9 10
-20 0 -11 5 -20 10 -20 6 0 10 -9 10 -20 0 -11 5 -20 10 -20 6 0 10 -9 10 -20
0 -11 9 -25 20 -32 11 -7 20 -21 20 -30 0 -10 5 -18 10 -18 6 0 10 -10 10 -22
l1 -23 18 23 c11 12 26 22 35 22 9 0 16 5 16 10 0 6 9 10 20 10 11 0 20 5 20
10 0 6 7 10 15 10 13 0 15 -34 15 -249 0 -156 -4 -252 -10 -256 -6 -4 -10 -62
-10 -141 l0 -134 110 0 110 0 0 -269 c0 -169 -4 -272 -10 -276 -6 -4 -10 -101
-10 -259 0 -151 -4 -256 -10 -262 -6 -6 -11 -166 -12 -410 -3 -455 -8 -431 80
-445 26 -4 67 -11 92 -15 25 -3 52 -12 60 -19 14 -12 65 -33 220 -92 108 -41
223 -84 253 -95 33 -13 35 -28 5 -28 -13 0 -111 -21 -218 -46 -107 -25 -222
-51 -255 -59 -33 -7 -114 -27 -180 -43 -66 -17 -181 -44 -255 -61 -74 -17
-184 -42 -245 -56 -60 -14 -198 -45 -305 -69 -107 -25 -251 -58 -320 -74 -69
-17 -222 -54 -340 -82 -118 -28 -246 -58 -285 -66 -38 -8 -158 -35 -265 -60
-107 -25 -254 -59 -327 -76 -73 -17 -130 -35 -128 -39 3 -4 -4 -5 -14 -2 -20
5 -183 -29 -366 -76 -60 -16 -157 -39 -215 -51 -58 -12 -164 -38 -237 -56 -72
-19 -191 -47 -265 -63 -73 -16 -221 -50 -328 -76 -107 -25 -235 -55 -285 -66
-49 -11 -98 -22 -107 -25 -22 -6 -23 -27 -4 -43 8 -7 13 -24 11 -39 -2 -15 4
-35 12 -44 10 -11 13 -26 9 -41 -4 -16 0 -29 10 -38 11 -9 14 -22 10 -41 -4
-21 -1 -30 10 -35 12 -4 14 -14 10 -39 -4 -18 -2 -35 4 -39 5 -3 10 -21 10
-39 0 -17 4 -36 10 -42 5 -5 11 -23 12 -39 1 -17 6 -35 10 -42 5 -6 10 -26 10
-43 1 -17 5 -33 10 -36 4 -3 8 -20 8 -39 0 -19 5 -37 10 -40 6 -3 10 -21 10
-40 0 -19 5 -37 10 -40 5 -3 10 -21 10 -40 0 -19 5 -37 10 -40 6 -3 10 -21 10
-40 0 -19 5 -37 10 -40 6 -3 10 -17 10 -30 0 -13 5 -27 10 -30 6 -3 10 -21 10
-40 0 -19 5 -37 10 -40 6 -3 10 -21 10 -40 0 -19 5 -37 10 -40 6 -3 10 -17 10
-30 0 -13 5 -27 10 -30 6 -3 10 -16 10 -29 0 -12 3 -26 7 -30 4 -3 8 -16 10
-29 5 -28 24 -47 30 -29 3 7 21 12 43 12 21 0 42 5 45 10 3 6 21 10 40 10 19
0 37 5 40 10 3 5 19 10 36 10 l29 0 0 -144 c0 -143 7 -173 33 -147 6 6 48 11
99 11 52 0 88 4 88 10 0 6 37 10 90 10 53 0 90 4 90 10 0 6 36 10 89 10 50 0
93 5 96 10 3 6 48 10 100 10 52 0 97 4 100 10 3 5 44 10 90 10 46 0 87 5 90
10 3 6 46 10 96 10 53 0 89 4 89 10 0 6 37 10 90 10 53 0 90 4 90 10 0 6 37
10 90 10 53 0 90 4 90 10 0 6 40 10 99 10 56 0 103 4 106 10 3 6 44 10 90 10
46 0 87 5 90 10 3 6 44 10 90 10 46 0 87 4 90 10 3 5 44 10 90 10 46 0 87 4
90 10 3 5 46 10 96 10 53 0 89 4 89 10 0 6 40 10 100 10 60 0 100 4 100 10 0
6 36 10 89 10 50 0 93 4 96 10 3 5 44 10 90 10 46 0 87 4 90 10 3 5 44 10 90
10 46 0 87 5 90 10 3 6 44 10 90 10 46 0 87 5 90 10 3 6 50 10 106 10 59 0 99
4 99 10 0 6 37 10 90 10 53 0 90 4 90 10 0 6 37 10 90 10 53 0 90 4 90 10 0 6
36 10 89 10 50 0 93 5 96 10 3 6 44 10 90 10 46 0 87 5 90 10 3 6 48 10 100
10 52 0 97 4 100 10 3 6 44 10 90 10 46 0 87 5 90 10 3 6 44 10 90 10 46 0 87
5 90 10 3 6 44 10 90 10 46 0 87 5 90 10 3 6 33 10 66 10 l59 0 0 138 c0 75 4
142 8 148 8 12 139 34 207 34 l44 0 6 143 c3 78 8 381 10 672 3 337 9 537 15
550 6 12 9 82 8 174 l-3 154 -83 -2 c-58 -2 -82 1 -77 8 3 6 20 11 36 11 18 0
28 4 24 10 -3 6 -17 10 -30 10 -13 0 -27 5 -31 11 -6 11 -47 8 -93 -7 -16 -5
-22 -4 -18 3 11 17 -48 23 -100 10 -53 -14 -87 -11 -77 5 4 7 2 8 -5 4 -6 -4
-33 0 -59 8 -79 26 -236 47 -384 50 -21 0 -20 -21 -18 746 0 310 5 507 11 528
6 17 19 37 29 42 10 6 68 10 129 10 l110 0 5 158 c16 443 24 600 34 632 8 28
9 18 4 -49 -4 -68 -3 -83 8 -76 8 5 11 4 6 -3 -3 -5 -3 -12 1 -15 5 -2 2 -2
-6 0 -10 2 -11 -4 -6 -24 3 -16 11 -30 16 -31 6 -3 5 -10 -2 -18 -10 -12 3
-14 80 -14 l91 0 0 55 c0 30 5 55 10 55 6 0 10 -27 10 -61 0 -39 4 -58 10 -54
7 4 9 28 6 60 -4 39 -1 57 10 65 13 11 13 55 -1 68 -5 6 -9 -23 -6 -47 2 -7
-2 -10 -8 -6 -12 7 -15 63 -5 89 3 8 12 12 20 9 8 -3 21 0 28 6 10 9 34 10 78
4 35 -4 73 -7 86 -7 12 1 73 2 135 4 l112 3 -125 9 c-69 5 -192 14 -275 21
l-150 12 -3 148 -3 147 -112 0 c-150 0 -152 1 -143 111 3 46 10 107 14 134 l7
50 75 0 c87 -1 218 -11 344 -27 71 -9 90 -15 93 -29 6 -22 104 -52 523 -164
227 -60 374 -106 390 -120 22 -20 130 -21 130 -1 0 7 7 19 15 26 9 8 13 21 9
37 -4 15 -1 30 9 41 9 10 14 31 12 54 -2 23 2 41 10 48 9 7 12 22 9 39 -4 18
0 32 10 40 10 9 14 22 10 38 -4 15 -1 30 9 41 9 10 14 31 12 54 -2 23 2 41 11
49 8 7 12 20 8 35 -4 14 -1 31 7 41 8 9 14 33 14 54 1 20 6 43 12 51 7 7 10
26 9 41 -2 15 3 32 10 38 8 6 14 26 14 45 0 18 5 36 10 39 6 3 10 26 10 50 0
24 5 47 10 50 6 3 10 21 10 39 0 17 5 37 11 43 5 5 9 32 7 59 -3 44 -6 49 -28
52 -14 2 -29 8 -34 13 -6 5 -20 9 -32 9 -13 0 -26 5 -29 10 -3 6 -17 10 -30
10 -13 0 -27 5 -30 10 -3 6 -17 10 -30 10 -13 0 -27 5 -30 10 -3 6 -17 10 -30
10 -13 0 -27 5 -30 10 -3 6 -17 10 -30 10 -13 0 -27 5 -30 10 -3 6 -17 10 -30
10 -13 0 -27 5 -30 10 -3 6 -21 10 -40 10 -19 0 -37 5 -40 10 -3 6 -15 10 -26
10 -10 0 -19 5 -19 10 0 6 5 10 10 10 6 0 10 14 10 30 0 17 5 30 10 30 6 0 10
9 10 20 0 11 5 20 10 20 6 0 10 14 10 30 0 17 5 30 10 30 6 0 10 9 10 20 0 11
5 20 10 20 6 0 10 18 10 40 0 33 -3 40 -20 40 -11 0 -20 5 -20 10 0 6 -6 10
-13 10 -8 0 -22 9 -32 20 -10 11 -26 20 -37 20 -10 0 -18 5 -18 10 0 6 -9 10
-20 10 -11 0 -20 5 -20 10 0 6 -7 10 -15 10 -8 0 -15 -9 -15 -20 0 -11 -4 -20
-10 -20 -5 0 -10 -9 -10 -20 0 -11 -4 -20 -10 -20 -5 0 -10 -11 -10 -24 0 -14
-4 -28 -10 -31 -5 -3 -10 -15 -10 -26 0 -10 -4 -19 -9 -19 -5 0 -11 -12 -13
-27 -4 -35 -33 -42 -57 -14 -10 12 -26 21 -35 21 -9 0 -16 5 -16 10 0 6 -9 10
-20 10 -11 0 -20 5 -20 10 0 6 -9 10 -20 10 -11 0 -20 5 -20 10 0 6 -9 10 -19
10 -11 0 -21 6 -24 13 -5 14 -52 -82 -49 -100 3 -15 -24 -17 -33 -3 -3 6 -21
10 -40 10 -19 0 -37 5 -40 10 -3 6 -17 10 -30 10 -13 0 -27 5 -30 10 -3 6 -26
10 -50 10 -24 0 -47 5 -50 10 -3 6 -39 10 -80 10 -41 0 -77 5 -80 10 -3 6 -44
10 -90 10 -46 0 -87 5 -90 10 -3 6 -24 10 -46 10 -32 0 -39 3 -39 20 0 11 -4
20 -10 20 -5 0 -10 18 -10 40 0 22 -4 40 -10 40 -5 0 -10 18 -10 40 0 22 -4
40 -10 40 -5 0 -10 18 -10 40 0 22 -4 40 -10 40 -5 0 -10 23 -10 50 0 28 -4
50 -10 50 -5 0 -10 18 -10 40 0 22 -4 40 -10 40 -5 0 -10 18 -10 40 0 22 -4
40 -10 40 -5 0 -10 18 -10 40 0 29 -4 40 -15 40 -8 0 -15 -4 -15 -10 0 -5 -9
-10 -20 -10 -11 0 -25 -9 -32 -20 -7 -11 -20 -20 -29 -20 -9 0 -24 -9 -34 -20
-28 -31 -55 -26 -55 10 0 17 -4 30 -10 30 -5 0 -10 18 -10 40 0 22 -4 40 -10
40 -5 0 -10 16 -10 35 0 18 -6 38 -14 42 -8 4 -15 17 -18 28 -5 29 -26 27 -86
-5z m988 -1238 l75 -17 -2 -35 c-1 -19 -7 -62 -12 -95 -6 -33 -15 -89 -21
-125 -5 -36 -14 -90 -20 -120 -6 -30 -14 -80 -18 -110 -12 -95 -9 -94 -150
-58 l-122 30 6 42 c27 176 94 510 103 516 7 4 29 3 49 -2 20 -5 71 -16 112
-26z m-361 -1326 c-8 -8 -78 -10 -85 -3 -4 4 14 7 41 7 27 0 46 -2 44 -4z
m-72 -138 c-3 -8 -6 -5 -6 6 -1 11 2 17 5 13 3 -3 4 -12 1 -19z m-437 -2065
c-35 -4 -35 -5 -32 -43 3 -23 14 -50 28 -65 l23 -25 -24 0 c-30 0 -32 3 -41
78 l-7 62 44 -2 c40 -1 41 -2 9 -5z m725 -82 c27 -8 23 -9 -30 -10 -33 -1 -78
-4 -100 -8 -22 -3 -37 -2 -33 2 4 4 20 9 35 11 15 1 29 6 30 11 4 10 58 7 98
-6z m-302 -28 c-18 -2 -48 -2 -65 0 -18 2 -4 4 32 4 36 0 50 -2 33 -4z m-353
-13 c0 -5 -2 -10 -4 -10 -3 0 -8 5 -11 10 -3 6 -1 10 4 10 6 0 11 -4 11 -10z
m53 3 c-7 -2 -21 -2 -30 0 -10 3 -4 5 12 5 17 0 24 -2 18 -5z m-1218 -92 c-3
-6 -11 -11 -16 -11 -5 0 -4 6 3 14 14 16 24 13 13 -3z m-55 -10 c0 -9 -52 -22
-60 -15 -7 7 23 24 43 24 9 0 17 -4 17 -9z m328 -16 c-7 -5 -13 -16 -13 -22 0
-26 -20 -17 -21 8 -1 22 3 26 23 25 17 -1 20 -4 11 -11z m-405 -2 c-9 -3 -10
-10 -3 -23 7 -13 7 -21 0 -25 -5 -3 -11 -1 -11 4 -1 6 -2 16 -3 21 0 6 -8 15
-16 20 -11 7 -8 10 15 9 17 0 24 -3 18 -6z m98 -17 c-6 -7 -7 -17 -3 -22 4 -4
-2 -2 -12 6 -17 13 -17 15 -2 18 9 2 13 8 10 14 -4 7 -2 8 5 4 8 -6 9 -12 2
-20z m339 -20 c0 -3 -4 -8 -10 -11 -5 -3 -10 -1 -10 4 0 6 5 11 10 11 6 0 10
-2 10 -4z m-442 -57 c-6 30 21 20 33 -12 7 -21 17 -33 25 -30 6 2 15 0 19 -6
4 -7 -4 -11 -19 -11 -14 0 -26 -4 -26 -10 0 -5 7 -10 16 -10 11 0 15 -6 11
-20 -3 -11 -1 -18 4 -14 5 3 9 -2 9 -11 0 -20 22 -15 28 6 3 11 2 11 -6 1 -7
-11 -10 -11 -15 2 -4 9 -2 16 3 16 6 0 9 3 9 8 -5 28 2 33 20 14 24 -28 34
-28 27 1 -3 12 -3 16 0 10 3 -7 15 -13 26 -13 12 0 26 -8 33 -17 11 -15 9 -19
-18 -31 -101 -42 -172 -9 -191 91 -2 12 -7 31 -11 42 l-8 20 17 -20 c9 -11 15
-14 14 -6z m227 11 c3 -5 1 -10 -4 -10 -6 0 -11 5 -11 10 0 6 2 10 4 10 3 0 8
-4 11 -10z m-85 -8 c0 -4 -10 -9 -22 -9 -18 -2 -20 0 -8 7 18 12 30 13 30 2z
m12 -37 c3 3 5 -2 5 -9 0 -10 -5 -12 -16 -7 -9 5 -22 7 -29 5 -7 -1 -8 0 -2 3
5 2 7 9 4 15 -4 6 1 6 13 -1 11 -6 22 -8 25 -6z m-747 -19 c-16 -7 -35 -11
-41 -9 -7 2 -15 0 -19 -6 -3 -6 -20 -11 -37 -11 -43 0 -30 9 34 25 72 17 102
18 63 1z m220 4 c3 -5 1 -10 -4 -10 -6 0 -11 5 -11 10 0 6 2 10 4 10 3 0 8 -4
11 -10z m609 2 c3 -5 -1 -9 -9 -9 -8 0 -12 4 -9 9 3 4 7 8 9 8 2 0 6 -4 9 -8z
m236 4 c0 -3 -4 -8 -10 -11 -5 -3 -10 -1 -10 4 0 6 5 11 10 11 6 0 10 -2 10
-4z m-230 -57 c0 -10 -5 -19 -11 -19 -6 0 -9 6 -6 14 3 7 0 19 -6 25 -9 9 -8
11 6 6 9 -4 17 -16 17 -26z m50 -9 c-27 -7 -43 -3 -35 9 2 5 17 6 32 3 l28 -6
-25 -6z m-952 -25 c-3 -3 -9 2 -12 12 -6 14 -5 15 5 6 7 -7 10 -15 7 -18z
m-336 -6 c-5 -21 29 -132 44 -145 8 -6 11 -13 9 -16 -3 -3 -7 -31 -9 -63 -3
-46 -8 -63 -26 -77 -12 -10 -26 -16 -30 -13 -4 3 -11 -3 -14 -12 -6 -15 -8
-14 -20 2 -10 15 -14 15 -18 3 -4 -8 -23 -15 -49 -16 -24 -2 -45 -7 -47 -11
-1 -4 -14 -6 -27 -3 -16 3 -25 0 -25 -9 0 -7 -3 -9 -6 -6 -4 3 -15 2 -24 -3
-22 -12 -43 10 -34 34 3 9 1 16 -6 16 -14 0 -41 -26 -34 -33 3 -2 -7 -4 -21
-4 -25 0 -25 0 -9 18 16 18 16 19 -5 19 -13 0 -20 4 -15 11 3 6 17 8 29 5 25
-6 43 8 25 19 -6 4 -8 11 -5 16 4 5 -1 9 -10 9 -9 0 -13 5 -10 10 4 6 1 17 -5
25 -10 12 -10 18 0 30 10 12 7 12 -20 -1 -17 -9 -34 -13 -37 -10 -4 3 -1 6 6
6 8 0 11 7 7 15 -4 10 1 15 17 16 13 1 16 3 7 5 -9 3 -21 14 -29 25 -7 12 -8
18 -2 14 6 -3 11 1 11 10 0 11 -6 15 -17 12 -50 -14 -72 -16 -77 -9 -2 4 7 12
22 18 63 25 131 45 144 43 7 -1 24 3 38 9 14 6 61 19 105 28 44 9 96 20 115
24 43 9 56 7 52 -11z m578 -9 c0 -5 -2 -10 -4 -10 -3 0 -8 5 -11 10 -3 6 -1
10 4 10 6 0 11 -4 11 -10z m-535 -40 c3 -5 1 -10 -4 -10 -6 0 -11 5 -11 10 0
6 2 10 4 10 3 0 8 -4 11 -10z m1853 -213 c18 -79 32 -151 32 -159 0 -12 -13
-17 -47 -20 -27 -2 -151 -17 -278 -33 l-230 -28 -134 -70 c-110 -56 -136 -66
-142 -54 -5 8 -10 82 -11 166 l-3 151 30 24 c17 14 64 42 105 64 72 38 83 41
255 61 99 11 214 25 255 30 41 4 89 9 106 10 l31 1 31 -143z m-2628 99 c0 -3
-4 -8 -10 -11 -5 -3 -10 -1 -10 4 0 6 5 11 10 11 6 0 10 -2 10 -4z m380 -66
c0 -5 -5 -10 -11 -10 -5 0 -7 5 -4 10 3 6 8 10 11 10 2 0 4 -4 4 -10z m1205 0
c3 -6 -1 -7 -9 -4 -18 7 -21 14 -7 14 6 0 13 -4 16 -10z m1763 3 c-21 -2 -55
-2 -75 0 -21 2 -4 4 37 4 41 0 58 -2 38 -4z m85 0 c-7 -2 -21 -2 -30 0 -10 3
-4 5 12 5 17 0 24 -2 18 -5z m-3093 -23 c-6 -11 -13 -20 -16 -20 -2 0 0 9 6
20 6 11 13 20 16 20 2 0 0 -9 -6 -20z m-420 -4 c-7 -7 -14 -6 -21 1 -9 9 -7
12 9 10 14 -1 18 -5 12 -11z m1720 2 c0 -11 -28 -10 -35 1 -3 6 4 9 15 8 11
-1 20 -5 20 -9z m1868 -8 c22 -11 46 -20 52 -20 5 0 10 -4 10 -10 0 -6 -36
-10 -87 -10 -94 0 -109 8 -24 12 l52 3 -28 22 c-35 28 -29 29 25 3z m-451 -36
c2 -51 -16 -56 -29 -8 -9 34 -4 54 14 54 8 0 14 -16 15 -46z m-3097 26 c0 -5
-4 -10 -10 -10 -5 0 -10 5 -10 10 0 6 5 10 10 10 6 0 10 -4 10 -10z m425 0 c3
-5 -1 -10 -9 -10 -8 0 -18 5 -21 10 -3 6 1 10 9 10 8 0 18 -4 21 -10z m-619
-48 c-5 -32 -31 -18 -34 18 -4 34 -3 34 16 17 11 -10 19 -26 18 -35z m154 22
c0 -8 -4 -12 -10 -9 -5 3 -10 10 -10 16 0 5 5 9 10 9 6 0 10 -7 10 -16z m83 2
c4 -10 1 -13 -9 -9 -7 3 -14 9 -14 14 0 14 17 10 23 -5z m355 0 c-2 -1 -11 -7
-20 -14 -14 -11 -16 -10 -11 7 3 12 11 17 19 14 8 -3 14 -6 12 -7z m2890 -23
c-10 -2 -26 -2 -35 0 -10 3 -2 5 17 5 19 0 27 -2 18 -5z m-2803 -53 c-3 -5 -1
-10 4 -10 6 0 11 -11 11 -25 0 -14 -5 -25 -11 -25 -5 0 -9 10 -7 22 2 11 -3
23 -10 26 -7 2 -12 0 -11 -5 3 -18 -1 -36 -8 -29 -9 9 -11 46 -2 40 4 -2 10 0
14 6 3 5 11 10 16 10 6 0 7 -4 4 -10z m-665 -36 c0 -8 -4 -14 -9 -14 -6 0 -9
9 -8 19 1 22 17 18 17 -5z m-770 -23 c0 -5 -6 -14 -14 -20 -10 -9 -15 -8 -19
3 -3 8 -3 17 0 20 9 9 33 7 33 -3z m1374 -7 c10 -25 -1 -29 -14 -5 -6 12 -7
21 -1 21 5 0 12 -7 15 -16z m-617 -56 c-2 -13 -4 -3 -4 22 0 25 2 35 4 23 2
-13 2 -33 0 -45z m-880 -40 c-3 -8 -6 -5 -6 6 -1 11 2 17 5 13 3 -3 4 -12 1
-19z m-547 -28 c-8 -5 -22 -9 -30 -9 -10 0 -8 3 5 9 27 12 43 12 25 0z m1329
7 c-2 -1 -11 -8 -21 -15 -12 -10 -18 -10 -24 -1 -4 7 -3 9 4 5 6 -3 13 -2 17
4 3 5 11 10 17 10 6 0 9 -1 7 -3z m1175 -33 c9 -3 16 -10 16 -14 0 -5 5 -21
12 -37 6 -15 10 -32 9 -38 -1 -5 2 -27 7 -50 6 -22 16 -66 23 -97 7 -32 16
-58 22 -58 5 0 7 7 3 15 -4 13 -2 13 14 5 25 -13 33 -13 24 2 -5 8 -2 9 9 5
10 -3 17 -2 17 3 0 6 -4 10 -10 10 -5 0 -10 5 -10 10 0 6 12 10 28 9 15 0 21
-3 15 -6 -7 -2 -13 -8 -13 -13 0 -10 38 -5 100 15 25 7 56 12 70 10 14 -2 34
-4 45 -5 22 -2 26 -1 -164 -49 -68 -18 -130 -30 -137 -27 -15 6 -26 42 -55
189 -15 74 -26 107 -35 107 -35 0 -298 -71 -306 -82 -10 -17 -12 -2 21 -168
16 -80 28 -145 28 -146 -1 -1 -65 -16 -142 -33 -77 -18 -148 -35 -157 -37 -24
-7 -23 -51 2 -156 11 -46 20 -95 20 -110 0 -15 7 -33 15 -41 12 -13 6 -17 -48
-32 -34 -10 -105 -28 -157 -41 -52 -12 -139 -34 -194 -49 -54 -14 -100 -24
-103 -22 -2 3 37 15 86 27 50 12 95 28 102 36 8 10 8 14 0 14 -6 0 -11 5 -11
11 0 8 5 8 15 -1 12 -10 25 -10 63 0 26 7 52 17 58 22 6 4 18 6 26 3 7 -3 33
1 57 10 24 8 54 15 66 15 18 0 22 4 18 20 -3 11 -11 20 -19 20 -7 0 -16 5 -20
12 -5 8 0 9 14 6 12 -4 20 -3 19 0 -14 25 -20 53 -23 91 -1 28 -8 48 -19 53
-12 7 -13 13 -5 23 12 15 10 36 -5 47 -18 13 -53 9 -59 -8 -3 -8 -10 -13 -15
-9 -5 3 -12 -3 -15 -13 -5 -13 -15 -19 -35 -18 -16 1 -27 4 -24 9 2 4 -3 7
-12 7 -11 0 -15 -5 -11 -15 7 -18 -15 -20 -32 -3 -9 9 -12 8 -12 -4 0 -13 -10
-16 -47 -16 -47 0 -69 12 -68 38 1 8 -2 20 -6 25 -4 6 -8 33 -10 60 -1 28 -6
55 -11 62 -9 11 -14 38 -20 118 -2 28 1 39 10 38 6 -2 12 2 12 7 0 6 13 9 28
8 15 -1 34 2 42 7 8 6 24 10 35 11 11 1 38 5 60 9 22 4 56 9 75 12 19 3 45 15
58 26 l23 22 -11 -30 c-8 -21 -8 -31 -1 -33 6 -2 11 -12 11 -23 0 -11 7 -31
16 -44 12 -19 13 -25 3 -25 -8 0 -7 -5 5 -13 10 -7 18 -27 18 -45 1 -18 4 -32
9 -32 4 0 5 -9 2 -19 -7 -28 14 -61 35 -54 9 3 22 12 29 20 6 8 14 14 17 14
21 -3 26 1 20 12 -4 6 2 4 13 -5 11 -10 24 -18 29 -18 5 0 2 4 -5 9 -12 8 -8
11 15 16 16 3 45 10 65 15 20 6 48 10 62 10 23 0 25 3 21 33 -3 17 -7 39 -11
47 -3 8 -7 31 -10 50 -3 19 -8 37 -12 40 -3 3 -7 32 -9 66 -4 63 11 94 44 94
8 0 14 4 14 8 0 5 37 16 83 26 45 10 91 21 102 26 24 10 67 12 89 4z m-2794
-38 c0 -3 -4 -8 -10 -11 -5 -3 -10 -1 -10 4 0 6 5 11 10 11 6 0 10 -2 10 -4z
m3150 -78 c0 -4 -7 -5 -16 -1 -13 5 -13 7 -2 14 7 5 8 9 3 9 -6 0 -12 15 -13
33 -1 32 -1 32 13 -8 8 -22 15 -43 15 -47z m-3233 20 c-3 -8 -6 -5 -6 6 -1 11
2 17 5 13 3 -3 4 -12 1 -19z m1353 2 c-44 -24 -59 -25 -35 -2 11 10 31 19 45
20 23 1 22 0 -10 -18z m110 -10 c0 -5 -3 -10 -7 -11 -5 0 -16 -2 -26 -4 -15
-3 -16 -1 -6 11 13 16 39 19 39 4z m-1455 -30 c-3 -5 -11 -10 -16 -10 -6 0 -7
5 -4 10 3 6 11 10 16 10 6 0 7 -4 4 -10z m1280 0 c3 -5 1 -10 -4 -10 -6 0 -11
5 -11 10 0 6 2 10 4 10 3 0 8 -4 11 -10z m1943 -30 c1 -16 -3 -32 -9 -36 -9
-5 -10 1 -5 19 3 14 2 29 -4 32 -15 9 -12 25 3 19 7 -2 14 -18 15 -34z m-1821
24 c-3 -3 -12 -4 -19 -1 -8 3 -5 6 6 6 11 1 17 -2 13 -5z m-72 -24 c3 -5 2
-10 -4 -10 -5 0 -13 5 -16 10 -3 6 -2 10 4 10 5 0 13 -4 16 -10z m-1311 -15
c3 -8 1 -15 -4 -15 -6 0 -10 7 -10 15 0 8 2 15 4 15 2 0 6 -7 10 -15z m1173
-7 c-3 -8 -6 -5 -6 6 -1 11 2 17 5 13 3 -3 4 -12 1 -19z m80 16 c-3 -3 -12 -4
-19 -1 -8 3 -5 6 6 6 11 1 17 -2 13 -5z m18 -24 c-3 -5 -11 -10 -16 -10 -6 0
-7 5 -4 10 3 6 11 10 16 10 6 0 7 -4 4 -10z m2102 -6 c-3 -3 -12 -4 -19 -1 -8
3 -5 6 6 6 11 1 17 -2 13 -5z m-3354 -55 c-4 -13 -9 -17 -15 -11 -11 11 -3 32
12 32 4 0 6 -9 3 -21z m2942 11 c3 -5 -1 -10 -9 -10 -9 0 -16 5 -16 10 0 6 4
10 9 10 6 0 13 -4 16 -10z m-1710 -10 c3 -5 1 -10 -4 -10 -6 0 -11 5 -11 10 0
6 2 10 4 10 3 0 8 -4 11 -10z m-120 -10 c-3 -5 -12 -10 -18 -10 -7 0 -6 4 3
10 19 12 23 12 15 0z m-175 -4 c0 -2 -8 -10 -17 -17 -16 -13 -17 -12 -4 4 13
16 21 21 21 13z m370 -16 c0 -5 -2 -10 -4 -10 -3 0 -8 5 -11 10 -3 6 -1 10 4
10 6 0 11 -4 11 -10z m-203 -6 c-3 -3 -12 -4 -19 -1 -8 3 -5 6 6 6 11 1 17 -2
13 -5z m116 -12 c16 -17 16 -19 0 -17 -18 1 -23 6 -23 25 0 14 5 13 23 -8z
m32 0 c-3 -3 -11 0 -18 7 -9 10 -8 11 6 5 10 -3 15 -9 12 -12z m-230 -22 c-3
-5 -10 -10 -16 -10 -5 0 -9 5 -9 10 0 6 7 10 16 10 8 0 12 -4 9 -10z m-1005
-16 c0 -8 -5 -12 -10 -9 -6 4 -8 11 -5 16 9 14 15 11 15 -7z m1377 -25 c-7 -3
-52 -16 -102 -28 -49 -12 -126 -31 -170 -43 -150 -38 -235 -56 -229 -47 3 5 0
9 -7 9 -7 0 -9 3 -5 7 7 8 40 14 74 13 12 0 22 5 22 11 0 6 6 9 14 6 14 -5 30
-2 141 28 33 9 68 17 77 18 9 1 14 5 12 9 -5 8 9 10 83 12 17 0 30 3 28 6 -2
3 14 5 36 5 21 0 33 -2 26 -6z m-417 -9 c0 -5 -2 -10 -4 -10 -3 0 -8 5 -11 10
-3 6 -1 10 4 10 6 0 11 -4 11 -10z m-575 -43 c8 -20 11 -37 6 -37 -5 0 -12 11
-15 24 -3 13 -9 32 -13 43 -11 32 6 8 22 -30z m1141 -34 c-3 -3 0 -13 6 -21
19 -22 21 -62 5 -62 -19 0 -28 35 -13 51 8 9 8 10 -1 5 -7 -4 -13 -3 -13 2 0
5 -3 25 -6 43 l-6 34 17 -23 c9 -13 14 -26 11 -29z m728 32 c-6 -16 -24 -21
-24 -7 0 11 11 22 21 22 5 0 6 -7 3 -15z m-74 -140 c5 3 8 -3 7 -14 0 -11 -4
-18 -8 -15 -4 2 -14 -3 -23 -11 -9 -9 -17 -11 -21 -5 -3 5 -1 10 4 10 6 0 11
5 11 11 0 5 -4 7 -10 4 -6 -4 -7 1 -3 11 4 11 8 13 11 6 7 -21 19 -13 17 11
-1 12 0 14 2 4 2 -9 8 -15 13 -12z m-1393 -27 c-2 -13 -4 -5 -4 17 -1 22 1 32
4 23 2 -10 2 -28 0 -40z m-335 -88 c2 -14 13 -34 25 -46 17 -16 20 -23 11 -32
-7 -7 -8 -12 -2 -12 5 0 2 -5 -6 -10 -13 -9 -13 -11 -1 -19 8 -5 15 -26 17
-48 1 -21 8 -62 14 -92 6 -29 9 -55 7 -58 -6 -5 -93 350 -102 412 -5 37 -4 36
14 -15 11 -30 21 -66 23 -80z m1108 109 c0 -5 -4 -9 -10 -9 -5 0 -10 7 -10 16
0 8 5 12 10 9 6 -3 10 -10 10 -16z m537 -30 c-19 -11 -55 0 -37 11 7 4 21 5
32 2 17 -4 18 -6 5 -13z m-1306 -33 c5 3 10 2 10 -3 6 -35 10 -54 20 -94 12
-46 6 -99 -10 -99 -4 0 -8 22 -8 49 -1 27 -8 59 -17 74 -11 17 -14 27 -7 32 8
4 8 12 1 25 -5 10 -10 22 -9 27 0 4 3 2 6 -5 2 -6 9 -10 14 -6z m1816 -8 c-3
-8 -6 -5 -6 6 -1 11 2 17 5 13 3 -3 4 -12 1 -19z m-422 -106 c-3 -4 -10 0 -15
8 -6 9 -5 17 3 22 13 8 24 -19 12 -30z m1435 4 c0 -5 -7 -3 -15 4 -8 7 -12 17
-9 22 7 10 24 -9 24 -26z m-2923 -130 c4 -4 -9 -6 -29 -4 -20 1 -35 5 -33 8 5
8 53 5 62 -4z m1018 -86 c-27 -12 -43 -12 -25 0 8 5 22 9 30 9 10 0 8 -3 -5
-9z m-1188 -82 c-3 -7 -5 -2 -5 12 0 14 2 19 5 13 2 -7 2 -19 0 -25z m10 -50
c-3 -8 -6 -5 -6 6 -1 11 2 17 5 13 3 -3 4 -12 1 -19z m420 -74 c-3 -3 -12 -4
-19 -1 -8 3 -5 6 6 6 11 1 17 -2 13 -5z"/>
<path d="M3195 3270 c3 -5 8 -10 11 -10 2 0 4 5 4 10 0 6 -5 10 -11 10 -5 0
-7 -4 -4 -10z"/>
<path d="M6600 6560 c11 -11 20 -24 20 -30 0 -5 7 -10 16 -10 8 0 12 5 9 11
-8 11 26 9 35 -3 3 -4 12 -3 20 2 13 9 13 10 0 11 -29 1 -49 7 -81 23 -41 21
-43 20 -19 -4z"/>
<path d="M6758 6513 c7 -3 16 -2 19 1 4 3 -2 6 -13 5 -11 0 -14 -3 -6 -6z"/>
<path d="M6785 6500 c-3 -5 -1 -10 4 -10 6 0 11 5 11 10 0 6 -2 10 -4 10 -3 0
-8 -4 -11 -10z"/>
<path d="M6810 6506 c0 -3 9 -10 20 -16 11 -6 20 -8 20 -6 0 3 -9 10 -20 16
-11 6 -20 8 -20 6z"/>
<path d="M6910 6470 c0 -5 5 -10 11 -10 5 0 7 5 4 10 -3 6 -8 10 -11 10 -2 0
-4 -4 -4 -10z"/>
<path d="M7182 6391 c2 -7 7 -12 11 -12 12 1 9 15 -3 20 -7 2 -11 -2 -8 -8z"/>
<path d="M7097 6364 c-4 -4 -4 -11 -1 -15 7 -12 41 -11 49 1 4 6 -1 7 -10 3
-10 -3 -20 -1 -24 6 -4 6 -10 8 -14 5z"/>
<path d="M7210 6360 c0 -8 -9 -10 -26 -6 -18 5 -25 3 -22 -5 2 -7 17 -13 32
-15 16 -2 31 -6 35 -10 3 -4 -4 -5 -15 -2 -12 3 -28 2 -35 -3 -10 -6 -4 -9 18
-9 33 0 51 14 33 25 -6 4 -8 10 -5 15 3 5 1 11 -5 15 -5 3 -10 1 -10 -5z"/>
<path d="M6598 6353 c12 -2 30 -2 40 0 9 3 -1 5 -23 4 -22 0 -30 -2 -17 -4z"/>
<path d="M6662 6355 c9 -9 88 -13 94 -4 3 5 -18 9 -47 9 -29 0 -50 -2 -47 -5z"/>
<path d="M6795 6351 c21 -10 72 -15 64 -6 -3 2 -23 7 -45 10 -28 3 -34 2 -19
-4z"/>
<path d="M6896 6032 c-4 -6 2 -8 15 -5 12 4 25 0 30 -8 6 -10 9 -10 9 -2 0 15
56 6 85 -14 23 -15 165 -18 165 -3 0 6 42 11 103 12 l102 1 -135 7 c-74 4
-187 11 -251 15 -76 5 -119 4 -123 -3z"/>
<path d="M6265 5540 c-3 -5 -1 -10 4 -10 6 0 11 5 11 10 0 6 -2 10 -4 10 -3 0
-8 -4 -11 -10z"/>
<path d="M6102 4900 c0 -14 2 -19 5 -12 2 6 2 18 0 25 -3 6 -5 1 -5 -13z"/>
<path d="M4290 4844 c-250 -11 -277 -16 -89 -14 l115 1 3 -136 2 -135 -83 0
c-46 1 -102 5 -125 9 l-42 8 0 -308 -1 -308 43 -3 42 -3 12 -115 c6 -63 10
-121 7 -128 -3 -10 3 -12 24 -8 15 4 52 11 82 16 98 16 393 69 458 82 45 8 62
16 62 27 -1 44 -30 434 -36 479 -8 62 6 59 -199 37 -77 -9 -187 -20 -245 -25
-58 -5 -129 -12 -157 -16 -61 -7 -59 -11 -67 97 l-6 76 103 6 c158 10 360 26
385 32 22 5 22 7 22 173 l0 167 -37 0 c-21 0 -144 -5 -273 -11z m130 -28 c0
-8 -51 -13 -56 -5 -3 5 9 9 25 9 17 0 31 -2 31 -4z m-2 -52 c5 3 13 -2 16 -11
4 -10 4 -14 0 -11 -4 4 -15 3 -25 -2 -21 -12 -32 0 -23 25 5 12 9 13 14 5 4
-7 12 -10 18 -6z m82 10 c0 -1 -3 -9 -6 -18 -8 -22 -34 -20 -34 2 0 11 7 18
20 18 11 0 20 -1 20 -2z m-74 -66 c4 -6 3 -8 -4 -4 -5 3 -12 1 -14 -5 -2 -7
-13 -9 -26 -5 -12 4 -20 12 -17 17 9 13 52 11 61 -3z m-146 -189 c0 -5 -8 -9
-17 -10 -10 0 -53 -4 -95 -7 -58 -6 -78 -4 -78 4 0 7 8 14 18 17 34 8 172 5
172 -4z"/>
<path d="M4094 4802 c4 -3 14 -7 22 -8 9 -1 13 0 10 4 -4 3 -14 7 -22 8 -9 1
-13 0 -10 -4z"/>
<path d="M4148 4793 c6 -2 18 -2 25 0 6 3 1 5 -13 5 -14 0 -19 -2 -12 -5z"/>
<path d="M4067 4764 c-4 -4 -7 -17 -7 -28 1 -19 1 -20 11 -3 11 19 8 43 -4 31z"/>
<path d="M2560 4381 c-275 -77 -396 -113 -408 -120 -9 -5 -9 -16 -1 -42 6 -18
13 -47 16 -64 3 -16 9 -33 14 -36 5 -3 11 -16 14 -29 2 -12 10 -38 16 -57 6
-19 9 -47 6 -62 -8 -40 6 -48 66 -40 28 4 71 8 94 8 l42 1 40 -125 c22 -68 43
-140 47 -160 3 -19 10 -37 14 -40 6 -4 119 12 245 36 28 5 69 12 93 15 29 5
48 14 58 29 14 21 12 31 -15 112 -16 49 -37 119 -46 154 -24 92 -76 261 -86
281 -5 10 -9 27 -9 37 0 11 -5 23 -11 26 -6 4 -8 13 -5 20 2 7 -2 22 -10 33
-8 12 -14 25 -13 29 3 20 -2 33 -13 32 -7 0 -74 -17 -148 -38z m-278 -113 c-9
-9 -15 -9 -24 0 -9 9 -7 12 12 12 19 0 21 -3 12 -12z m-46 -23 c20 -19 5 -19
-20 0 -11 9 -14 15 -7 15 7 0 19 -7 27 -15z m84 -13 c0 -12 51 -36 69 -33 8 1
10 -2 5 -11 -6 -10 -4 -10 9 1 24 19 45 7 42 -23 -2 -14 0 -26 5 -26 4 0 7
-11 6 -24 0 -14 -6 -22 -13 -19 -13 5 -16 -5 -14 -37 0 -9 -2 -10 -5 -3 -6 13
-35 6 -46 -11 -5 -8 -8 -7 -8 1 0 6 -15 11 -35 11 -19 0 -35 -4 -35 -10 0 -5
-4 -6 -10 -3 -5 3 -10 1 -10 -4 0 -6 -9 -11 -20 -11 -12 0 -17 5 -14 13 3 8
-6 18 -21 25 -26 12 -27 36 -1 26 17 -6 26 24 15 51 -4 11 -8 14 -8 8 -1 -7
-11 -13 -23 -13 -17 0 -19 3 -10 12 9 9 9 15 -1 27 -9 11 -9 13 0 8 6 -4 15
-2 18 4 4 5 14 8 22 5 8 -3 11 -2 8 3 -3 5 -1 12 5 16 5 3 10 -3 10 -14 0 -13
7 -21 16 -21 14 0 14 3 4 16 -11 13 -10 16 9 21 17 4 19 8 9 14 -10 7 -9 9 5
9 9 0 17 -4 17 -8z m63 -7 c-3 -9 -8 -14 -10 -11 -3 3 -2 9 2 15 9 16 15 13 8
-4z"/>
<path d="M2325 4194 c22 -16 35 -18 35 -5 0 5 -12 11 -27 14 -26 5 -26 4 -8
-9z"/>
<path d="M4840 4270 c0 -5 5 -10 11 -10 5 0 7 5 4 10 -3 6 -8 10 -11 10 -2 0
-4 -4 -4 -10z"/>
<path d="M3895 4240 c3 -5 11 -10 16 -10 6 0 7 5 4 10 -3 6 -11 10 -16 10 -6
0 -7 -4 -4 -10z"/>
<path d="M3940 4240 c0 -5 10 -10 23 -10 18 0 19 2 7 10 -19 13 -30 13 -30 0z"/>
<path d="M3958 4213 c7 -3 16 -2 19 1 4 3 -2 6 -13 5 -11 0 -14 -3 -6 -6z"/>
<path d="M3890 4142 c-23 -11 -20 -12 20 -6 66 10 95 23 45 21 -23 -1 -52 -8
-65 -15z"/>
<path d="M3838 4123 c7 -3 16 -2 19 1 4 3 -2 6 -13 5 -11 0 -14 -3 -6 -6z"/>
<path d="M3700 4100 l-35 -7 35 -1 c19 0 46 4 60 8 l25 8 -25 0 c-14 0 -41 -4
-60 -8z"/>
<path d="M2133 3923 c15 -2 37 -2 50 0 12 2 0 4 -28 4 -27 0 -38 -2 -22 -4z"/>
<path d="M6518 3863 c6 -2 18 -2 25 0 6 3 1 5 -13 5 -14 0 -19 -2 -12 -5z"/>
<path d="M2219 3695 c-5 -5 -137 -18 -344 -36 -71 -6 -144 -14 -161 -17 l-31
-7 47 -120 c51 -130 124 -320 133 -346 5 -14 13 -15 59 -7 29 4 114 17 188 28
217 31 368 58 388 69 19 10 17 16 -30 148 -27 76 -61 173 -75 216 l-24 77 -73
0 c-40 0 -75 -2 -77 -5z"/>
<path d="M4118 3693 c7 -3 16 -2 19 1 4 3 -2 6 -13 5 -11 0 -14 -3 -6 -6z"/>
<path d="M675 3568 l-50 -52 49 42 c27 23 56 42 65 42 9 0 33 -18 54 -40 20
-22 40 -41 44 -42 12 -2 116 -88 106 -88 -4 0 -1 -5 7 -11 11 -8 12 -12 2 -16
-6 -2 -9 -9 -6 -15 4 -6 10 -5 15 3 4 7 12 10 16 5 4 -4 -2 -16 -14 -26 -23
-18 -32 -37 -13 -25 6 3 10 1 10 -6 0 -8 4 -8 15 1 13 11 14 10 9 -4 -6 -14
-2 -17 17 -14 13 2 23 9 21 16 -2 14 14 16 23 3 3 -6 -3 -14 -12 -20 -10 -6
-13 -11 -8 -11 6 -1 -3 -7 -20 -14 -20 -9 -34 -10 -42 -4 -8 7 -18 5 -28 -6
-9 -9 -29 -16 -45 -16 -16 0 -32 -5 -35 -11 -4 -5 -12 -8 -18 -6 -6 2 -19 -4
-28 -12 -46 -42 -82 -59 -73 -37 3 9 -6 16 -28 20 -23 5 -29 9 -19 15 7 5 9
11 5 13 -12 7 -46 4 -61 -5 -6 -4 -15 -2 -19 4 -5 8 -3 9 6 4 9 -6 11 -4 5 4
-5 9 -11 9 -17 3 -6 -6 -17 -8 -26 -5 -9 4 -13 2 -9 -4 4 -5 0 -18 -7 -28 -12
-17 -13 -16 -11 6 3 31 -15 69 -32 69 -21 0 -15 17 9 23 21 6 21 7 4 26 -17
18 -17 23 -4 43 43 68 16 50 -99 -65 -70 -71 -135 -132 -143 -137 -11 -7 -8
-10 15 -10 19 0 25 -3 17 -8 -21 -14 21 -45 49 -37 17 6 21 4 16 -8 -9 -23 57
-82 80 -72 16 8 16 9 -4 12 -13 3 -23 9 -23 14 0 12 17 11 41 -2 16 -8 18 -14
9 -24 -8 -10 -4 -22 21 -49 17 -20 38 -36 46 -36 8 0 26 -13 40 -30 13 -16 30
-30 36 -30 6 0 28 -17 49 -37 27 -26 39 -33 42 -22 3 8 16 90 30 184 18 125
29 172 41 181 9 7 79 27 156 45 77 18 147 38 156 44 16 12 14 14 -136 125 -26
19 -88 70 -138 113 -50 42 -95 77 -100 77 -5 0 -31 -23 -58 -52z m400 -258
c-3 -5 -13 -10 -21 -10 -8 0 -14 5 -14 10 0 6 9 10 21 10 11 0 17 -4 14 -10z
m-564 -53 c-10 -9 -11 -8 -5 6 3 10 9 15 12 12 3 -3 0 -11 -7 -18z m-68 -65
c-8 -5 -9 -13 -3 -22 6 -8 10 -22 10 -30 0 -13 -1 -13 -10 0 -8 12 -10 12 -10
1 0 -11 -3 -11 -15 -1 -20 17 -19 31 2 23 12 -5 15 -2 11 9 -7 16 11 42 21 32
3 -3 0 -8 -6 -12z m54 -14 c-3 -8 -6 -5 -6 6 -1 11 2 17 5 13 3 -3 4 -12 1
-19z m47 -18 c10 -13 9 -13 -6 -1 -10 7 -18 21 -17 30 0 13 1 14 6 1 3 -8 11
-22 17 -30z m-154 14 c0 -8 -5 -12 -10 -9 -6 4 -8 11 -5 16 9 14 15 11 15 -7z
m-22 -23 c3 -8 -1 -12 -9 -9 -7 2 -15 10 -17 17 -3 8 1 12 9 9 7 -2 15 -10 17
-17z m166 -20 c-7 -8 -35 9 -29 19 4 6 11 5 20 -3 7 -6 11 -14 9 -16z m-114
-11 c0 -5 -4 -10 -10 -10 -5 0 -10 5 -10 10 0 6 5 10 10 10 6 0 10 -4 10 -10z
m34 -9 c3 -5 -1 -12 -10 -15 -20 -8 -29 -1 -19 13 8 13 22 14 29 2z m66 -71
c0 -5 -4 -10 -9 -10 -6 0 -13 5 -16 10 -3 6 1 10 9 10 9 0 16 -4 16 -10z m20
-20 c0 -5 -5 -10 -11 -10 -5 0 -7 5 -4 10 3 6 8 10 11 10 2 0 4 -4 4 -10z"/>
<path d="M579 3473 c-13 -16 -12 -17 4 -4 9 7 17 15 17 17 0 8 -8 3 -21 -13z"/>
<path d="M530 3370 c0 -5 4 -10 9 -10 6 0 13 5 16 10 3 6 -1 10 -9 10 -9 0
-16 -4 -16 -10z"/>
<path d="M920 3369 c0 -5 5 -7 10 -4 6 3 10 8 10 11 0 2 -4 4 -10 4 -5 0 -10
-5 -10 -11z"/>
<path d="M6495 2030 c4 -6 11 -8 16 -5 14 9 11 15 -7 15 -8 0 -12 -5 -9 -10z"/>
</g>
</svg>
