<svg xmlns="http://www.w3.org/2000/svg" viewBox="0 0 376 101"><path fill="#fa5745" d="M33.955 5.985H9.61v16.76h19.954v5.588H9.61V50.68H3.226V.398h30.729v5.587ZM71.068 50.68 59.096 29.929h-9.578v20.752h-6.385V.398H61.89c4.15 0 7.715 1.464 10.696 4.39 2.98 2.925 4.47 6.385 4.47 10.375 0 2.183-.4 4.179-1.198 5.986-.746 1.756-1.648 3.141-2.714 4.15a22.944 22.944 0 0 1-3.272 2.475c-1.065.694-1.995 1.145-2.794 1.357l-1.117.399 12.291 21.15h-7.183ZM49.518 5.985v18.357H61.89c2.395 0 4.442-.878 6.146-2.634a9.07 9.07 0 0 0 2.634-6.545c0-2.554-.878-4.709-2.634-6.465-1.7-1.807-3.751-2.713-6.146-2.713H49.52Zm44.273 39.109h26.338v5.587H87.406V.398h31.925v5.587h-25.54v15.963h23.545v5.587H93.79v17.559Zm43.1 0h26.338v5.587h-32.724V.398h31.926v5.587h-25.54v15.963h23.548v5.587h-23.545v17.559h-.004Z"/><path fill="#888" d="M179.997.398V50.68h-6.385V.398h6.385Zm21.15 50.283-21.15-25.54L199.55.397h7.582L187.18 25.14l21.55 25.54h-7.583Zm44.27 0-4.79-12.372h-20.751l-4.789 12.372H208.3L227.455.398h5.587L252.2 50.68h-6.785Zm-15.165-39.907-8.38 21.948h16.76l-8.387-21.948h.007Zm25.523 2.793c0-3.512 1.568-6.652 4.709-9.418 3.14-2.766 7.023-4.15 11.653-4.15 4.362 0 8.033 1.492 11.014 4.47 3.033 2.925 4.55 6.489 4.55 10.694h-6.386c0-2.765-.878-5.056-2.634-6.864-1.755-1.808-3.938-2.713-6.544-2.713-2.874 0-5.268.826-7.184 2.474-1.863 1.596-2.793 3.432-2.793 5.507 0 2.235.902 4.043 2.714 5.427 1.863 1.385 4.094 2.475 6.704 3.273 2.606.746 5.216 1.596 7.822 2.554 2.661.958 4.893 2.498 6.704 4.63 1.864 2.074 2.794 4.76 2.794 8.06 0 3.724-1.545 6.916-4.63 9.578-3.088 2.662-7.13 3.99-12.131 3.99-5.108 0-9.179-1.408-12.212-4.23-3.033-2.82-4.55-6.464-4.55-10.934h6.386c0 3.033.878 5.4 2.634 7.103 1.808 1.649 4.39 2.475 7.742 2.475 3.244 0 5.774-.746 7.582-2.235 1.863-1.544 2.793-3.46 2.793-5.747 0-2.234-.93-4.042-2.793-5.427-1.808-1.385-4.018-2.447-6.625-3.193a172.734 172.734 0 0 1-7.901-2.633 16.537 16.537 0 0 1-6.705-4.55c-1.807-2.127-2.713-4.84-2.713-8.14Zm39.518 0c0-3.512 1.569-6.652 4.71-9.418C303.138 1.383 307.025 0 311.654 0c4.362 0 8.033 1.492 11.014 4.47 3.033 2.925 4.546 6.489 4.546 10.694h-6.385c0-2.765-.874-5.056-2.63-6.864-1.756-1.808-3.939-2.713-6.545-2.713-2.873 0-5.268.826-7.183 2.474-1.864 1.596-2.794 3.432-2.794 5.507 0 2.235.902 4.043 2.714 5.427 1.86 1.385 4.095 2.475 6.704 3.273 2.606.746 5.212 1.596 7.822 2.554 2.658.958 4.893 2.498 6.704 4.63 1.86 2.074 2.794 4.76 2.794 8.06 0 3.724-1.544 6.916-4.63 9.578-3.088 2.662-7.13 3.99-12.131 3.99-5.108 0-9.179-1.408-12.215-4.23-3.03-2.82-4.546-6.464-4.546-10.934h6.385c0 3.033.878 5.4 2.634 7.103 1.808 1.649 4.39 2.475 7.739 2.475 3.248 0 5.774-.746 7.585-2.235 1.86-1.544 2.794-3.46 2.794-5.747 0-2.234-.934-4.042-2.794-5.427-1.811-1.385-4.018-2.447-6.628-3.193a172.615 172.615 0 0 1-7.898-2.633 16.537 16.537 0 0 1-6.704-4.55c-1.812-2.127-2.714-4.84-2.714-8.14Zm73.037 37.114-4.789-12.372h-20.752l-4.788 12.372h-6.785L350.372.398h5.587l19.155 50.283h-6.784Zm-15.165-39.907-8.38 21.948h16.76l-8.38-21.948Z"/><path fill="#888" d="M5.149 75.805c-1.33 1.457-1.992 3.32-1.992 5.587 0 2.266.663 4.13 1.992 5.587 1.329 1.457 2.932 2.186 4.81 2.186 1.877 0 3.48-.729 4.809-2.186 1.33-1.458 1.992-3.321 1.992-5.587 0-2.266-.663-4.13-1.992-5.587-1.329-1.458-2.932-2.187-4.81-2.187-1.877 0-3.48.73-4.81 2.187ZM2.67 70.46l.972 2.429c.163-.195.406-.438.728-.729.323-.292 1.052-.68 2.187-1.166a8.632 8.632 0 0 1 3.643-.777c2.85 0 5.265 1.051 7.24 3.158 1.977 2.106 2.963 4.778 2.963 8.016 0 3.237-.99 5.91-2.964 8.016-1.978 2.106-4.39 3.158-7.239 3.158-1.294 0-2.495-.243-3.595-.73-1.069-.485-1.829-.97-2.283-1.457l-.68-.728v10.445H-.001V70.46h2.672Zm30.826-.243c2.397 0 4.372.728 5.927 2.186 1.554 1.457 2.332 3.238 2.332 5.344v14.575h-2.672l-.972-2.43c-.226.26-.469.504-.729.73-.323.29-1.051.693-2.186 1.214a9.135 9.135 0 0 1-3.644.729c-2.137 0-3.886-.632-5.247-1.895a6.11 6.11 0 0 1-2.04-4.664c0-2.266 1.02-4.001 3.06-5.198 2.041-1.232 5.636-1.847 10.786-1.847v-1.214c0-1.1-.451-2.058-1.36-2.866a4.521 4.521 0 0 0-3.255-1.264c-2.395 0-3.852 1.052-4.373 3.158h-3.886c.26-1.908 1.117-3.48 2.574-4.712 1.458-1.232 3.353-1.846 5.685-1.846Zm-1.944 18.947c1.846 0 3.401-.52 4.664-1.555 1.263-1.069 1.895-2.252 1.895-3.546v-1.7c-4.081 0-6.802.308-8.162.922-1.36.615-2.04 1.604-2.04 2.964 0 .777.34 1.457 1.02 2.04.68.583 1.554.875 2.623.875Zm22.098 2.672L45.15 70.46h3.887l6.559 16.76 6.558-16.76h3.887l-9.474 23.805c-.874 2.204-1.797 3.758-2.769 4.664-.937.937-2.12 1.409-3.546 1.409l-1.458-.243V97.18c1.038 0 1.832-.226 2.38-.68.584-.451 1.087-1.197 1.507-2.235l.971-2.43Zm37.662-21.62c2.01 0 3.724.827 5.15 2.478 1.423 1.652 2.137 3.821 2.137 6.51v13.118h-3.643V79.205c0-1.749-.42-3.109-1.263-4.08a3.822 3.822 0 0 0-3.11-1.507c-1.263 0-2.349.521-3.255 1.555-.905 1.038-1.36 2.38-1.36 4.032v13.118h-3.644V79.205c0-1.749-.42-3.109-1.263-4.08a3.822 3.822 0 0 0-3.11-1.507c-1.231 0-2.314.535-3.254 1.604-.906 1.068-1.36 2.394-1.36 3.983v13.118h-3.644V70.46h2.672l.972 2.429c.055-.1.121-.202.194-.292.097-.128.309-.34.631-.631.32-.32.677-.597 1.07-.826.388-.226.891-.438 1.505-.632a6.41 6.41 0 0 1 1.944-.291c1.294 0 2.446.322 3.449.971 1.006.65 1.7 1.295 2.089 1.944l.534.971c.066-.097.146-.225.243-.388.098-.195.34-.52.73-.972a7.107 7.107 0 0 1 1.262-1.166 7.077 7.077 0 0 1 1.846-.923 6.998 6.998 0 0 1 2.478-.437Zm27.192 16.276h3.887a11.536 11.536 0 0 1-3.498 4.372c-1.52 1.135-3.352 1.7-5.49 1.7-2.849 0-5.264-1.05-7.239-3.157-1.978-2.107-2.963-4.779-2.963-8.016 0-3.207.972-5.865 2.915-7.968 1.978-2.138 4.324-3.206 7.044-3.206 2.72 0 5.022 1.02 6.899 3.06 1.877 2.04 2.818 4.664 2.818 7.87l-.243 1.944h-15.547c.132 1.586.826 2.995 2.09 4.227 1.263 1.232 2.672 1.846 4.226 1.846 2.072 0 3.772-.892 5.101-2.672Zm-5.344-12.875c-1.457 0-2.786.6-3.984 1.798-1.165 1.197-1.863 2.707-2.089 4.518h11.903c-.225-1.908-.892-3.435-1.992-4.567-1.069-1.166-2.346-1.749-3.838-1.749Zm24.517-3.4c2.363 0 4.372.892 6.024 2.672 1.652 1.78 2.478 4.05 2.478 6.801v12.632h-3.644V79.69c0-1.78-.52-3.237-1.554-4.372a4.939 4.939 0 0 0-3.79-1.7c-1.718 0-3.126.565-4.226 1.7-1.07 1.1-1.604 2.557-1.604 4.372v12.632h-3.643V70.46h2.672l.971 2.429a7.09 7.09 0 0 1 .729-.729c.323-.292 1.02-.68 2.09-1.166a8.075 8.075 0 0 1 3.497-.777Zm16.754-2.43v-3.157h3.158v5.83h4.858v3.4h-4.858v11.417c0 1.197.323 2.152.971 2.867.68.68 1.572 1.02 2.673 1.02l1.214-.243v3.158c-.486.322-1.214.486-2.186.486-1.75 0-3.238-.68-4.47-2.04-1.232-1.361-1.846-3.11-1.846-5.248V73.861h-3.886v-3.4h1.7c1.78 0 2.672-.892 2.672-2.672Zm38.144 18.219c0 1.877-.694 3.45-2.089 4.712-1.36 1.232-3.172 1.847-5.441 1.847-2.363 0-4.258-.632-5.684-1.895-1.423-1.263-2.2-2.898-2.332-4.907h3.643c.132 1.006.57 1.829 1.312 2.478.746.614 1.766.923 3.06.923 1.167 0 2.107-.309 2.819-.923a2.853 2.853 0 0 0 1.068-2.235 2.182 2.182 0 0 0-1.166-1.992c-.777-.486-1.735-.843-2.866-1.069-1.1-.26-2.22-.552-3.352-.874a5.821 5.821 0 0 1-2.866-1.846c-.778-.937-1.166-2.17-1.166-3.693 0-1.749.68-3.237 2.04-4.47 1.36-1.231 3.11-1.845 5.247-1.845 2.27 0 4.05.6 5.344 1.797 1.329 1.197 2.058 2.787 2.186 4.761h-3.644c-.256-2.106-1.554-3.158-3.886-3.158-1.034 0-1.909.292-2.624.875-.68.583-1.02 1.263-1.02 2.04 0 .875.389 1.555 1.166 2.04.778.452 1.718.81 2.818 1.07 1.135.225 2.27.503 3.4.826 1.135.322 2.09.954 2.867 1.894.777.906 1.166 2.12 1.166 3.644Zm10.667 5.83-8.502-21.376h3.887l6.559 16.76 6.558-16.76h3.887l-9.474 23.805c-.874 2.204-1.797 3.758-2.769 4.664-.94.937-2.124 1.409-3.546 1.409l-1.458-.243V97.18c1.034 0 1.829-.226 2.38-.68.584-.451 1.083-1.197 1.507-2.235l.971-2.43Zm30.371-5.83c0 1.877-.694 3.45-2.089 4.712-1.36 1.232-3.171 1.847-5.44 1.847-2.36 0-4.259-.632-5.685-1.895-1.423-1.263-2.2-2.898-2.332-4.907h3.644c.107.961.576 1.85 1.311 2.478.746.614 1.77.923 3.061.923 1.166 0 2.106-.309 2.818-.923a2.853 2.853 0 0 0 1.069-2.235 2.182 2.182 0 0 0-1.166-1.992c-.778-.486-1.732-.843-2.867-1.069a77.41 77.41 0 0 1-3.352-.874 5.821 5.821 0 0 1-2.866-1.846c-.778-.937-1.166-2.17-1.166-3.693 0-1.749.68-3.237 2.04-4.47 1.36-1.231 3.11-1.845 5.247-1.845 2.27 0 4.05.6 5.344 1.797 1.33 1.197 2.058 2.787 2.186 4.761h-3.643c-.257-2.106-1.555-3.158-3.887-3.158-1.034 0-1.908.292-2.623.875-.68.583-1.02 1.263-1.02 2.04 0 .875.388 1.555 1.165 2.04.778.452 1.718.81 2.818 1.07 1.135.225 2.27.503 3.401.826 1.135.322 2.089.954 2.866 1.894.778.906 1.166 2.12 1.166 3.644Zm7.024-18.218V64.63h3.158v5.83h4.858v3.4h-4.858v11.417c0 1.197.323 2.152.971 2.867.68.68 1.572 1.02 2.672 1.02l1.215-.243v3.158c-.486.322-1.215.486-2.186.486-1.75 0-3.241-.68-4.47-2.04-1.232-1.361-1.846-3.11-1.846-5.248V73.861h-3.886v-3.4h1.7c1.78 0 2.672-.892 2.672-2.672Zm26.748 18.704h3.887a11.55 11.55 0 0 1-3.498 4.372c-1.527 1.135-3.353 1.7-5.49 1.7-2.853 0-5.264-1.05-7.242-3.157-1.975-2.107-2.964-4.779-2.964-8.016 0-3.207.972-5.865 2.915-7.968 1.978-2.138 4.324-3.206 7.044-3.206 2.725 0 5.022 1.02 6.903 3.06 1.874 2.04 2.814 4.664 2.814 7.87l-.243 1.944h-15.546c.132 1.586.83 2.995 2.092 4.227 1.26 1.232 2.672 1.846 4.227 1.846 2.072 0 3.772-.892 5.101-2.672Zm-5.344-12.875c-1.458 0-2.787.6-3.984 1.798-1.17 1.197-1.863 2.707-2.092 4.518h11.902c-.225-1.908-.888-3.435-1.992-4.567-1.068-1.166-2.345-1.749-3.838-1.749h.004Zm36.173-3.4c2.01 0 3.723.826 5.15 2.477 1.423 1.652 2.137 3.821 2.137 6.51v13.118h-3.643V79.205c0-1.749-.42-3.109-1.263-4.08a3.822 3.822 0 0 0-3.11-1.507c-1.263 0-2.349.521-3.255 1.555-.905 1.038-1.36 2.38-1.36 4.032v13.118h-3.644V79.205c0-1.749-.42-3.109-1.263-4.08a3.822 3.822 0 0 0-3.11-1.507c-1.231 0-2.314.535-3.254 1.604-.906 1.068-1.36 2.394-1.36 3.983v13.118h-3.644V70.46h2.672l.972 2.429c.055-.1.121-.202.194-.292.097-.128.309-.34.631-.631.323-.323.68-.6 1.07-.826.388-.226.891-.438 1.505-.632a6.41 6.41 0 0 1 1.944-.291c1.294 0 2.446.322 3.449.971 1.006.65 1.7 1.295 2.089 1.944l.534.971c.066-.097.146-.225.243-.388.097-.195.34-.52.729-.972a7.107 7.107 0 0 1 1.263-1.166 7.077 7.077 0 0 1 1.846-.923 6.998 6.998 0 0 1 2.478-.437Z"/></svg>