<svg width="358" height="109" viewBox="0 0 358 109" fill="none" xmlns="http://www.w3.org/2000/svg">
<g clip-path="url(#clip0_398_229)">
<path d="M26.518 0H0V12.932H26.518V0Z" fill="#32333A"/>
<path d="M39.7766 12.9321H26.5176V38.7961H39.7766V12.9321Z" fill="#32333A"/>
<path d="M13.259 25.8638H0V38.7958V51.7296H26.5179V38.7958H13.259V25.8638Z" fill="#32333A"/>
<path d="M58.7199 12.9321H45.4609V51.73H58.7199H71.9789V38.7961H58.7199V12.9321Z" fill="#32333A"/>
<path d="M85.2385 0H71.9795V38.7959H85.2385V0Z" fill="#32333A"/>
<path d="M104.18 0H90.9209V51.7298H104.18V12.932H117.439V0H104.18Z" fill="#32333A"/>
<path d="M130.697 12.9321H117.438V38.7961H130.697V12.9321Z" fill="#32333A"/>
<path d="M253.821 12.932V0H240.562H227.303V38.7959H240.562V12.932H253.821Z" fill="#32333A"/>
<path d="M253.821 38.7961H240.562V51.73H267.079V38.7961V12.9321H253.821V38.7961Z" fill="#32333A"/>
<path d="M162.9 12.932V0H136.382V12.932V38.7959H149.641V12.932H162.9Z" fill="#32333A"/>
<path d="M162.9 38.7958H149.641V51.7296H176.159V38.7958V25.8638H162.9V38.7958Z" fill="#32333A"/>
<path d="M195.1 12.9321H181.841V38.7961H195.1V12.9321Z" fill="#32333A"/>
<path d="M221.619 0H195.101V12.932H221.619V0Z" fill="#32333A"/>
<path d="M221.619 38.7959H195.101V51.7279H221.619V38.7959Z" fill="#32333A"/>
<path d="M286.021 0H272.762V51.7298H286.021V12.932H299.282V0H286.021Z" fill="#32333A"/>
<path d="M312.54 12.9321H299.281V38.7961H312.54V12.9321Z" fill="#32333A"/>
<path d="M344.741 38.7959H318.223V51.7279H344.741V38.7959Z" fill="#32333A"/>
<path d="M358 25.8638H344.741V38.7958H358V25.8638Z" fill="#32333A"/>
<path d="M358 0H331.482V12.932H358V0Z" fill="#32333A"/>
<path d="M331.482 12.9321H318.223V25.8641H331.482V12.9321Z" fill="#32333A"/>
<path d="M58.7197 57.272V70.204H71.9787V96.0679H85.2377V57.272H71.9787H58.7197Z" fill="#32333A"/>
<path d="M58.718 70.2041H45.459V109H58.718V70.2041Z" fill="#32333A"/>
<path d="M117.438 57.272V70.204H104.179V109H90.9199V57.272H117.438Z" fill="#32333A"/>
<path d="M130.697 70.2041H117.438V109H130.697V70.2041Z" fill="#32333A"/>
<path d="M26.518 70.204V57.272H0V70.204V96.0679H13.259V70.204H26.518Z" fill="#32333A"/>
<path d="M26.5178 96.0682H13.2588V109H39.7767V96.0682V83.1362H26.5178V96.0682Z" fill="#32333A"/>
<path d="M149.639 70.2041H136.38V96.0681H149.639V70.2041Z" fill="#32333A"/>
<path d="M176.159 57.272H149.641V70.204H176.159V57.272Z" fill="#32333A"/>
<path d="M176.159 96.0679H149.641V109H176.159V96.0679Z" fill="#32333A"/>
<path d="M208.359 96.0679H181.841V109H208.359V96.0679Z" fill="#32333A"/>
<path d="M221.617 83.1362H208.358V96.0682H221.617V83.1362Z" fill="#32333A"/>
<path d="M221.618 57.272H195.1V70.204H221.618V57.272Z" fill="#32333A"/>
<path d="M195.1 70.2041H181.841V83.1361H195.1V70.2041Z" fill="#32333A"/>
</g>
<defs>
<clipPath id="clip0_398_229">
<rect width="358" height="109" fill="white"/>
</clipPath>
</defs>
</svg>
