<svg width="257" height="427" viewBox="0 0 257 427" fill="none" xmlns="http://www.w3.org/2000/svg">
<path fill-rule="evenodd" clip-rule="evenodd" d="M60 427L120 307L60 247L1.04907e-05 307L60 427ZM60 282.232L89.6869 311.919L60 371.293L30.3132 311.919L60 282.232Z" fill="#2E2F36"/>
<path fill-rule="evenodd" clip-rule="evenodd" d="M60 0L0 120L60 180L120 120L60 0ZM60 144.768L30.3132 115.081L60 55.7072L89.6869 115.081L60 144.768Z" fill="#2E2F36"/>
<path fill-rule="evenodd" clip-rule="evenodd" d="M257 213L137 153L77 213L137 273L257 213ZM112.232 213L141.919 183.313L201.293 213L141.919 242.687L112.232 213Z" fill="#2E2F36"/>
</svg>
